<svg height="512" width="512" xmlns="http://www.w3.org/2000/svg"><path d="M481.854 119.657a14.997 14.997 0 00-8.271-12.636L262.708 1.583a15.002 15.002 0 00-13.416 0L38.417 107.021a14.997 14.997 0 00-8.271 12.636c-.16 3.07-3.628 76.168 21.273 161.035 14.734 50.214 36.406 94.071 64.414 130.354 35.295 45.722 80.659 79.357 134.832 99.973a15.017 15.017 0 0010.67 0c54.173-20.615 99.537-54.251 134.832-99.973 28.008-36.283 49.68-80.141 64.414-130.354 24.901-84.867 21.433-157.965 21.273-161.035zM431.55 273.076C401.012 376.419 341.966 446.307 256 480.892c-85.966-34.585-145.013-104.473-175.55-207.816-18.868-63.854-20.604-121.982-20.516-143.272L256 31.77l196.065 98.032c.089 21.301-1.649 79.425-20.515 143.274z"/><path d="M412.927 143.775l-150.22-75.109a15.005 15.005 0 00-13.416 0L99.073 143.775a14.997 14.997 0 00-8.263 14.349c1.63 26.162 6.272 66.288 19.133 108.871 25.712 85.138 72.616 145.052 139.408 178.076a14.993 14.993 0 0013.296 0c66.792-33.024 113.696-92.938 139.408-178.076 12.859-42.579 17.503-82.706 19.134-108.87a14.996 14.996 0 00-8.262-14.35zm-39.589 114.546C351.003 332.277 311.545 384.864 256 414.748c-55.545-29.884-95.003-82.471-117.338-156.427-10.518-34.825-15.165-67.992-17.189-92.205L256 98.852l134.528 67.264c-2.026 24.215-6.674 57.383-17.19 92.205z"/></svg>