<svg xmlns="http://www.w3.org/2000/svg" viewBox="0 0 477.867 477.867"><path d="M238.933 0C106.974 0 0 106.974 0 238.933s106.974 238.933 238.933 238.933 238.933-106.974 238.933-238.933C477.726 107.033 370.834.141 238.933 0zm0 443.733c-113.108 0-204.8-91.692-204.8-204.8s91.692-204.8 204.8-204.8 204.8 91.692 204.8 204.8c-.122 113.058-91.742 204.678-204.8 204.8z"/><circle cx="153.6" cy="204.8" r="34.133"/><circle cx="324.267" cy="204.8" r="34.133"/><path d="M304.287 296.61c-5.637-7.554-16.331-9.108-23.885-3.47a17.07 17.07 0 00-.953.766c-24.135 17.628-56.898 17.628-81.033 0-7.131-6.164-17.909-5.379-24.072 1.752-6.164 7.131-5.379 17.909 1.752 24.072.308.267.626.522.953.766 36.531 27.922 87.236 27.922 123.767 0 7.555-5.638 9.109-16.332 3.471-23.886z"/></svg>