<svg height="512" width="512" xmlns="http://www.w3.org/2000/svg"><path d="M437.02 74.98C388.667 26.629 324.38 0 256 0S123.333 26.629 74.98 74.98C26.629 123.333 0 187.62 0 256s26.629 132.667 74.98 181.02C123.333 485.371 187.62 512 256 512s132.667-26.629 181.02-74.98C485.371 388.667 512 324.38 512 256s-26.629-132.667-74.98-181.02zm-21.214 340.826C373.12 458.492 316.367 482 256 482s-117.12-23.508-159.806-66.194S30 316.367 30 256 53.508 138.88 96.194 96.194 195.633 30 256 30s117.12 23.508 159.806 66.194S482 195.633 482 256s-23.508 117.12-66.194 159.806z"/><path d="M256 180c-41.907 0-76 34.094-76 76s34.093 76 76 76c41.906 0 76-34.094 76-76s-34.094-76-76-76zm0 122c-25.364 0-46-20.636-46-46s20.636-46 46-46 46 20.636 46 46-20.636 46-46 46z"/><path d="M452.036 241h-30.721C414.152 161.414 350.586 97.848 271 90.685V59.964h-30v30.721C161.413 97.848 97.848 161.414 90.685 241H59.964v30h30.721C97.848 350.586 161.413 414.152 241 421.315v30.721h30v-30.721c79.586-7.163 143.152-70.729 150.315-150.315h30.721zM271 391.169v-29.205h-30v29.205C177.969 384.221 127.779 334.03 120.831 271h29.205v-30h-29.205c6.948-63.03 57.138-113.221 120.169-120.169v29.205h30v-29.205C334.03 127.779 384.221 177.97 391.169 241h-29.205v30h29.205C384.221 334.03 334.03 384.221 271 391.169z"/></svg>