<svg height="512" viewBox="0 0 512.001 512.001" width="512" xmlns="http://www.w3.org/2000/svg"><path d="M256 361c74.439 0 135-60.561 135-135S330.44 91 256 91s-135 60.561-135 135 60.561 135 135 135zm0-240c57.897 0 105 47.103 105 105s-47.103 105-105 105-105-47.103-105-105 47.104-105 105-105z"/><path d="M1.121 416.688A14.999 14.999 0 0015 426h71v71a15 15 0 0025.666 10.547l96.789-97.878 36.939 36.938A14.953 14.953 0 00256 451c3.839 0 7.678-1.464 10.606-4.394l36.939-36.938 96.789 97.878A15 15 0 00426 497v-71h71a15.001 15.001 0 0010.526-25.687l-59.327-58.438c3.849-3.664 5.628-9.263 4.156-14.758l-14.001-52.258 38.253-38.254c5.858-5.858 5.858-15.355 0-21.213l-38.253-38.254 14.001-52.258c2.144-8.002-2.604-16.227-10.606-18.371L389.491 92.51l-14.002-52.257c-2.144-8.002-10.367-12.75-18.371-10.607l-52.149 13.973-38.244-39.106a15.002 15.002 0 00-21.449-.001l-38.244 39.106-52.149-13.973c-8.006-2.144-16.228 2.605-18.371 10.607L122.51 92.51l-52.257 14.002c-8.002 2.144-12.75 10.369-10.606 18.371l14.001 52.258-38.253 38.254c-5.858 5.858-5.858 15.355 0 21.213l38.253 38.254-14.001 52.258c-1.472 5.495.306 11.094 4.156 14.758L4.474 400.314a14.998 14.998 0 00-3.353 16.374zM411 396c-8.284 0-15 6.716-15 15v49.498l-37.406-37.826c7.514 1.231 14.882-3.414 16.894-10.924l14.002-52.257 26.603-7.128L460.396 396zM67.214 226l33.771-33.771a14.997 14.997 0 003.882-14.489l-12.361-46.134 46.134-12.361a14.998 14.998 0 0010.606-10.607l12.361-46.134 46.133 12.361a15 15 0 0014.606-4.001L256 36.454l33.653 34.412a14.999 14.999 0 0014.606 4.001l46.133-12.361 12.361 46.134a15 15 0 0010.606 10.607l46.134 12.361-12.361 46.134a15.002 15.002 0 003.882 14.489L444.787 226l-33.771 33.771a14.997 14.997 0 00-3.882 14.489l12.361 46.134-46.134 12.361a14.998 14.998 0 00-10.606 10.607l-12.361 46.134-46.133-12.361a15.003 15.003 0 00-14.489 3.882L256 414.787l-33.771-33.771a14.996 14.996 0 00-14.489-3.882l-46.133 12.361-12.361-46.134a15 15 0 00-10.606-10.607l-46.134-12.361 12.361-46.134a15.002 15.002 0 00-3.882-14.489zm28.692 126.363l26.603 7.128 14.002 52.257c2.012 7.51 9.379 12.155 16.894 10.924L116 460.498V411c0-8.284-6.716-15-15-15H51.604z"/><path d="M208.711 246.918l-6.026 35.132a15.001 15.001 0 0021.764 15.813L256 281.275l31.551 16.587a15 15 0 0021.764-15.813l-6.026-35.132 25.525-24.881a14.999 14.999 0 00-8.313-25.585l-35.275-5.126-15.775-31.964a15 15 0 00-26.902.001l-15.775 31.964-35.275 5.126a15 15 0 00-8.313 25.585zm30.181-27.038a14.998 14.998 0 0011.294-8.206l5.814-11.78 5.814 11.781a15.002 15.002 0 0011.294 8.206l13.001 1.889-9.408 9.17a15.002 15.002 0 00-4.314 13.277l2.221 12.948-11.628-6.113a14.999 14.999 0 00-13.96 0l-11.628 6.113 2.221-12.948a15.002 15.002 0 00-4.314-13.277l-9.408-9.17z"/></svg>